<svg width="16" height="16" viewBox="0 0 16 16" fill="none" xmlns="http://www.w3.org/2000/svg">
<path d="M15.138 7.52861L10.4713 2.86195C10.3456 2.74051 10.1772 2.67331 10.0024 2.67483C9.82756 2.67635 9.66035 2.74646 9.53675 2.87007C9.41314 2.99367 9.34303 3.16088 9.34151 3.33568C9.33999 3.51048 9.40719 3.67888 9.52863 3.80461L13.0573 7.33328H1.33329C1.15648 7.33328 0.986912 7.40352 0.861888 7.52854C0.736864 7.65357 0.666626 7.82314 0.666626 7.99995C0.666626 8.17676 0.736864 8.34633 0.861888 8.47135C0.986912 8.59637 1.15648 8.66661 1.33329 8.66661H13.0573L9.52863 12.1953C9.46495 12.2568 9.41416 12.3303 9.37923 12.4117C9.34429 12.493 9.32589 12.5805 9.32513 12.669C9.32436 12.7575 9.34122 12.8453 9.37475 12.9272C9.40827 13.0092 9.45777 13.0836 9.52036 13.1462C9.58296 13.2088 9.65739 13.2583 9.73932 13.2918C9.82125 13.3253 9.90904 13.3422 9.99756 13.3414C10.0861 13.3407 10.1736 13.3223 10.2549 13.2873C10.3362 13.2524 10.4098 13.2016 10.4713 13.1379L15.138 8.47128C15.2629 8.34626 15.3332 8.17672 15.3332 7.99995C15.3332 7.82317 15.2629 7.65363 15.138 7.52861Z" fill="black"/>
</svg>
