<svg width="48" height="48" viewBox="0 0 48 48" fill="none" xmlns="http://www.w3.org/2000/svg">
<g clip-path="url(#clip0_76_248)">
<path d="M27 39L30.5 43L34.5 40L31 36L27 39Z" fill="#DE4A33"/>
<path d="M34 7L41 14L47 8L45 4L40.5 1.5L34 7Z" fill="#DE4A33"/>
<path d="M5.5 37L2.5 45.5L9.5 44L11 42L5.5 37Z" fill="#DE4A33"/>
<path fill-rule="evenodd" clip-rule="evenodd" d="M36.6225 1.75725L4.19246 34.1895C4.02746 34.3537 3.89997 34.5547 3.82497 34.776L0.0749684 46.026C-0.105032 46.5645 0.0374611 47.1593 0.442461 47.5605C0.839961 47.9625 1.43249 48.1028 1.97249 47.9228L13.2225 44.1728C13.4475 44.0993 13.6425 43.9755 13.8075 43.8105L46.245 11.379C47.37 10.2533 48 8.727 48 7.13625C48 5.54475 47.37 4.0185 46.245 2.8935C45.8625 2.517 45.48 2.13375 45.105 1.75725C43.98 0.63225 42.4575 0 40.8675 0C39.27 0 37.7475 0.63225 36.6225 1.75725ZM32.175 32.5365C31.9725 31.9185 31.4025 31.5 30.75 31.5C30.0975 31.5 29.5275 31.9185 29.325 32.5365L27.8999 36.9038L23.535 38.3235C22.92 38.5245 22.5 39.1005 22.5 39.75C22.5 40.3995 22.92 40.9755 23.535 41.1765L27.8999 42.5962L29.325 46.9635C29.5275 47.5815 30.0975 48 30.75 48C31.4025 48 31.9725 47.5815 32.175 46.9635L33.6 42.5962L37.965 41.1765C38.58 40.9755 39 40.3995 39 39.75C39 39.1005 38.58 38.5245 37.965 38.3235L33.6 36.9038L32.175 32.5365ZM3.87001 44.1285L9.97502 42.0945L5.90248 38.0265L3.87001 44.1285ZM30.75 37.851L30.9825 38.5575C31.125 39.0143 31.485 39.372 31.9425 39.5205L32.6475 39.75L31.9425 39.9795C31.485 40.128 31.125 40.4857 30.9825 40.9425L30.75 41.649L30.5174 40.9425C30.3749 40.4857 30.015 40.128 29.5575 39.9795L28.8525 39.75L29.5575 39.5205C30.015 39.372 30.3749 39.0143 30.5174 38.5575L30.75 37.851ZM7.37245 35.25L12.75 40.629L39.1275 14.25L33.75 8.871L7.37245 35.25ZM38.25 29.25H36.75C35.925 29.25 35.25 29.922 35.25 30.75C35.25 31.578 35.925 32.25 36.75 32.25H38.25V33.75C38.25 34.578 38.925 35.25 39.75 35.25C40.575 35.25 41.25 34.578 41.25 33.75V32.25H42.75C43.575 32.25 44.25 31.578 44.25 30.75C44.25 29.922 43.575 29.25 42.75 29.25H41.25V27.75C41.25 26.922 40.575 26.25 39.75 26.25C38.925 26.25 38.25 26.922 38.25 27.75V29.25ZM12.675 1.0365C12.4725 0.4185 11.9025 0 11.25 0C10.5975 0 10.0275 0.4185 9.82497 1.0365L7.66496 7.66725L1.03499 9.8235C0.41999 10.0245 -1.32693e-05 10.6005 -1.32693e-05 11.25C-1.32693e-05 11.8995 0.41999 12.4755 1.03499 12.6765L7.66496 14.8328L9.82497 21.4635C10.0275 22.0815 10.5975 22.5 11.25 22.5C11.9025 22.5 12.4725 22.0815 12.675 21.4635L14.835 14.8328L21.465 12.6765C22.08 12.4755 22.5 11.8995 22.5 11.25C22.5 10.6005 22.08 10.0245 21.465 9.8235L14.835 7.66725L12.675 1.0365ZM11.25 6.351L12.2175 9.32175C12.3675 9.77775 12.7199 10.1355 13.1774 10.284L16.1475 11.25L13.1774 12.216C12.7199 12.3645 12.3675 12.7222 12.2175 13.1782L11.25 16.149L10.2825 13.1782C10.1325 12.7222 9.78003 12.3645 9.32253 12.216L6.35246 11.25L9.32253 10.284C9.78003 10.1355 10.1325 9.77775 10.2825 9.32175L11.25 6.351ZM41.25 12.129L35.8725 6.75L38.745 3.879C39.3075 3.31575 40.065 3 40.8675 3C41.6625 3 42.42 3.31575 42.9825 3.879C43.365 4.25475 43.7475 4.63875 44.1225 5.0145C44.685 5.577 45 6.3405 45 7.13625C45 7.932 44.685 8.69475 44.1225 9.25725L41.25 12.129Z" fill="#3F3F3F"/>
</g>
<defs>
<clipPath id="clip0_76_248">
<rect width="48" height="48" fill="white"/>
</clipPath>
</defs>
</svg>
