<svg width="48" height="48" viewBox="0 0 48 48" fill="none" xmlns="http://www.w3.org/2000/svg">
<g clip-path="url(#clip0_76_259)">
<circle cx="13.5" cy="19.5" r="2.5" fill="#DE4A33"/>
<path d="M34 32C34 41.2 35.6667 45.8333 36.5 47C38.5 46 39.5 36.5 39.5 29.5C39.5 23.9 38.1667 15.8333 37.5 12.5H36C34 13.5 34 20.5 34 32Z" fill="#DE4A33"/>
<path d="M13.8745 15.5625C11.8069 15.5625 10.1245 17.2449 10.1245 19.3125C10.1245 21.3802 11.8069 23.0626 13.8745 23.0626C15.9426 23.0626 17.6246 21.3802 17.6246 19.3125C17.6246 17.2449 15.9426 15.5625 13.8745 15.5625ZM13.8745 21.1875C12.8407 21.1875 11.9995 20.3464 11.9995 19.3125C11.9995 18.2787 12.8407 17.4375 13.8745 17.4375C14.9087 17.4375 15.7496 18.2787 15.7496 19.3125C15.7496 20.3464 14.9087 21.1875 13.8745 21.1875Z" fill="#3F3F3F"/>
<path d="M27.9372 14.625C27.9372 12.5574 26.2552 10.875 24.1872 10.875C22.1195 10.875 20.4371 12.5574 20.4371 14.625C20.4371 16.6927 22.1195 18.3751 24.1872 18.3751C26.2552 18.3751 27.9372 16.6927 27.9372 14.625ZM22.3121 14.625C22.3121 13.5912 23.1533 12.75 24.1872 12.75C25.2214 12.75 26.0622 13.5912 26.0622 14.625C26.0622 15.6589 25.2214 16.5 24.1872 16.5C23.1533 16.5 22.3121 15.6589 22.3121 14.625Z" fill="#3F3F3F"/>
<path d="M7.31201 30.5625C7.31201 32.6302 8.9944 34.3126 11.062 34.3126C13.1301 34.3126 14.8121 32.6302 14.8121 30.5625C14.8121 28.4949 13.1301 26.8125 11.062 26.8125C8.9944 26.8125 7.31201 28.4949 7.31201 30.5625ZM11.062 28.6875C12.0962 28.6875 12.9371 29.5287 12.9371 30.5625C12.9371 31.5964 12.0962 32.4375 11.062 32.4375C10.0282 32.4375 9.18703 31.5964 9.18703 30.5625C9.18703 29.5287 10.0282 28.6875 11.062 28.6875Z" fill="#3F3F3F"/>
<path d="M15.7496 38.063C15.7496 40.1307 17.432 41.813 19.4996 41.813C21.5676 41.813 23.2496 40.1307 23.2496 38.063C23.2496 35.9954 21.5676 34.313 19.4996 34.313C17.432 34.313 15.7496 35.9954 15.7496 38.063ZM21.3746 38.063C21.3746 39.0968 20.5338 39.938 19.4996 39.938C18.4658 39.938 17.6246 39.0968 17.6246 38.063C17.6246 37.0292 18.4658 36.188 19.4996 36.188C20.5338 36.188 21.3746 37.0292 21.3746 38.063Z" fill="#3F3F3F"/>
<path d="M41.0897 8.91584C41.0897 6.68523 37.8443 1.45973 37.1936 0.435062C37.0214 0.164064 36.723 0 36.4022 0C36.081 0 35.7825 0.164064 35.6108 0.435062C35.0421 1.33045 32.4936 5.43205 31.8582 7.94135C25.9658 5.52067 19.824 5.58659 14.4308 8.15705C9.06834 10.7129 4.74372 15.6846 3.21149 21.9439C3.08807 22.4471 3.39606 22.9543 3.89887 23.0773C3.97394 23.0956 4.04902 23.1044 4.12263 23.1044C4.5445 23.1044 4.92793 22.8177 5.03267 22.3896C6.36459 16.9484 10.1798 12.2601 15.2376 9.84932C20.3518 7.41217 26.228 7.46014 31.8355 9.97237C32.1296 11.245 32.9473 12.3377 34.0723 12.983C33.5204 14.9917 33.0905 18.0404 32.8462 21.7157C32.747 23.2077 32.68 24.7916 32.647 26.4315C29.0871 28.4742 26.7426 32.3612 27.0363 37.0037C27.1476 38.7579 27.3157 41.4089 24.5537 43.8164C22.5809 45.5365 19.6772 46.0093 16.9764 45.0505C10.2725 42.6712 5.42268 36.5741 4.62031 29.5172C4.56208 29.0027 4.09662 28.6335 3.58319 28.6914C3.06866 28.75 2.69915 29.2143 2.75738 29.7289C3.65753 37.6482 9.04527 44.2251 16.3494 46.8175C19.6885 48.0029 23.3042 47.3932 25.786 45.2296C29.2453 42.2138 29.0255 38.7473 28.9072 36.8847C28.6886 33.4251 30.1963 30.4983 32.6247 28.6837V28.6874C32.6247 33.1277 32.9649 41.8293 34.3961 45.8866C34.5997 46.4645 35.1413 48 36.3747 48C37.6085 48 38.1501 46.4645 38.3537 45.8866C39.7761 41.8546 40.1247 33.2171 40.1247 28.6874C40.1247 28.0439 40.1192 27.4107 40.1086 26.7929C40.3979 26.7889 40.6913 26.7885 40.9883 26.7933C42.7637 26.8193 44.3765 25.739 45.0053 24.1024C46.7283 19.614 43.5258 15.1433 39.7483 12.1982C40.5957 11.3347 41.0897 10.1621 41.0897 8.91584ZM36.4022 2.73488C37.7546 5.02445 39.2147 7.88422 39.2147 8.91584C39.2147 10.5437 37.8623 11.7643 36.3432 11.7302C34.8322 11.6961 33.5897 10.4631 33.5897 8.91584C33.5897 7.88422 35.0494 5.02445 36.4022 2.73488ZM36.4022 13.6034C36.5677 13.6034 36.7325 13.5939 36.8955 13.5766C37.3547 15.2935 37.7348 17.9101 37.9718 21.0016C36.9171 21.1371 35.8331 21.1346 34.778 20.9947C35.015 17.9035 35.3958 15.288 35.8558 13.5712C36.0363 13.5924 36.2187 13.6034 36.4022 13.6034ZM36.3747 45.7797C34.8601 42.5398 34.4997 32.7816 34.4997 28.6877C34.4997 28.164 34.5118 27.0108 34.5121 27.0079C34.5338 25.58 34.5821 24.1936 34.655 22.8701C35.2329 22.9418 35.8173 22.9781 36.4022 22.9781C36.9691 22.9781 37.5356 22.944 38.0956 22.8763C38.1501 23.8749 38.1904 24.9007 38.2157 25.9389C38.2384 26.8186 38.2497 27.7433 38.2497 28.6877C38.2497 32.9094 37.8685 42.5852 36.3747 45.7797ZM43.2548 23.4304C42.9069 24.3356 42.0067 24.9355 41.0176 24.919C40.6957 24.9139 40.3763 24.9139 40.0618 24.9187C40.0255 23.8317 39.9728 22.7617 39.9043 21.7267C39.9039 21.7205 39.9028 21.7143 39.9021 21.7081C39.6937 18.5707 39.3495 15.8904 38.9104 13.9253C42.7047 16.9963 44.36 20.5516 43.2548 23.4304Z" fill="#3F3F3F"/>
<path d="M4.49947 25.875C4.49947 26.3928 4.07978 26.8125 3.56196 26.8125C3.0445 26.8125 2.62445 26.3928 2.62445 25.875C2.62445 25.3572 3.0445 24.9375 3.56196 24.9375C4.07978 24.9375 4.49947 25.3572 4.49947 25.875Z" fill="#3F3F3F"/>
</g>
<defs>
<clipPath id="clip0_76_259">
<rect width="48" height="48" fill="white"/>
</clipPath>
</defs>
</svg>
