<svg width="54" height="54" viewBox="0 0 54 54" fill="none" xmlns="http://www.w3.org/2000/svg">
<path d="M40 38.5L34 44.5L42.5 48L44 47.5L40 38.5Z" fill="#DE4A33"/>
<path d="M18 18L13.5 22.5L21.5 31.5L26.5 26.5L18 18Z" fill="#DE4A33"/>
<path d="M36.1697 9.67083L33.2714 8.70931L32.31 5.81091C32.2659 5.67775 32.1414 5.58789 32.0014 5.58789C31.8611 5.58789 31.7367 5.67775 31.6924 5.81091L30.7315 8.70931L27.8327 9.67083C27.6997 9.71468 27.61 9.83931 27.61 9.97917C27.61 10.1195 27.6997 10.2438 27.8327 10.2881L30.7315 11.2495L31.6924 14.148C31.7367 14.281 31.8611 14.3708 32.0014 14.3708C32.1415 14.3708 32.2659 14.281 32.31 14.148L33.2714 11.2495L36.1697 10.2881C36.3027 10.2438 36.3928 10.1194 36.3928 9.97917C36.3929 9.8392 36.3029 9.71468 36.1697 9.67083Z" fill="#3F3F3F"/>
<path d="M45.2616 5.90275L43.5351 5.33003L42.9624 3.60354C42.9363 3.52427 42.8619 3.4707 42.7785 3.4707C42.695 3.4707 42.6209 3.52427 42.5948 3.60354L42.022 5.33003L40.2953 5.90275C40.2161 5.92889 40.1626 6.00309 40.1626 6.08646C40.1626 6.16995 40.216 6.24414 40.2953 6.2706L42.022 6.84333L42.5948 8.5696C42.6209 8.64909 42.695 8.70255 42.7785 8.70255C42.8619 8.70255 42.9363 8.64909 42.9624 8.5696L43.5351 6.84333L45.2616 6.2706C45.3409 6.24414 45.3944 6.16995 45.3944 6.08646C45.3944 6.00309 45.3409 5.92889 45.2616 5.90275Z" fill="#3F3F3F"/>
<path d="M22.3583 30.5727L14.4095 22.6239L18.2436 18.7896L26.3202 26.8662L27.8985 25.3898L19.3095 16.8007C19.2568 16.668 19.177 16.5435 19.0697 16.4361C18.9622 16.3287 18.8378 16.2491 18.7051 16.1963L16.2017 13.693C15.3316 12.8228 14.1748 12.3438 12.9442 12.3438C11.7138 12.3438 10.557 12.8229 9.68706 13.6929L9.31273 14.0671C7.51669 15.8635 7.5168 18.7859 9.31284 20.582L20.7799 32.0491L22.3583 30.5727ZM10.8402 19.0548C9.88632 18.1009 9.88632 16.5486 10.8402 15.5947L11.2144 15.2204C11.6765 14.7583 12.2908 14.5039 12.9443 14.5039C13.5979 14.5039 14.2123 14.7582 14.6745 15.2205L16.7162 17.2623L12.8821 21.0966L10.8402 19.0548Z" fill="#3F3F3F"/>
<path d="M44.9912 47.6316C44.5623 46.3428 42.3474 39.8387 40.8648 38.356L40.8552 38.3463C40.8025 38.2135 40.7228 38.0891 40.6153 37.9816C40.508 37.8743 40.3836 37.7947 40.2507 37.7419L34.9977 32.4888L33.5883 34.1341L38.2618 38.8076L34.4276 42.642L30.0503 38.2647L28.6411 39.9101L33.9758 45.2449C35.4586 46.7275 41.9623 48.942 43.2512 49.3709C43.363 49.4082 43.478 49.4262 43.592 49.4262C43.8738 49.4262 44.1497 49.3158 44.3555 49.1102L44.7296 48.7364C45.0193 48.4476 45.1204 48.0197 44.9912 47.6316ZM36.0273 44.0975L39.7173 40.4073C40.4611 41.6414 41.5671 44.4087 42.419 46.799C40.0289 45.9472 37.2616 44.8413 36.0273 44.0975Z" fill="#3F3F3F"/>
<path d="M44.7244 13.4449L44.5129 13.2337C43.9389 12.6599 43.1703 12.3438 42.3489 12.3438C41.5219 12.3438 40.7455 12.6613 40.1598 13.2384L16.5023 35.0674C16.4916 35.0772 16.4813 35.0873 16.4709 35.0974C15.9814 35.5869 15.7189 36.2069 15.7092 36.8922C15.4203 36.8321 15.1187 36.7967 14.806 36.7967C13.5696 36.7967 12.4551 37.3271 11.4934 38.3732C10.2751 39.6985 9.77214 41.1617 9.32858 42.4525C8.67022 44.3685 8.15009 45.8819 5.58228 46.9778C5.25234 47.1187 5.01398 47.4139 4.94584 47.7661C4.87769 48.1183 4.98882 48.4812 5.24251 48.7348C6.08837 49.5807 8.34805 49.881 10.0259 49.881C12.2211 49.881 16.3769 49.4077 19.5446 46.2399C20.4483 45.3362 20.9052 44.2805 20.9026 43.102C20.9019 42.8042 20.8698 42.5133 20.8152 42.2317C20.8873 42.2372 20.9595 42.2411 21.0322 42.2411C21.7357 42.2411 22.3717 41.9769 22.8717 41.4771C22.8818 41.4668 22.892 41.4564 22.9017 41.4458L44.7202 17.7985C45.9142 16.5867 45.9181 14.639 44.7244 13.4449ZM18.0173 44.7126C15.3998 47.3302 11.887 47.7211 10.026 47.7211C9.511 47.7211 9.05113 47.6927 8.6498 47.6484C10.2913 46.2971 10.8567 44.6523 11.3713 43.1546C11.7826 41.9581 12.1709 40.8279 13.0836 39.835C13.6269 39.2441 14.1902 38.9568 14.8059 38.9568C15.826 38.9568 16.852 39.7553 17.2549 40.1495C17.2959 40.193 17.3268 40.2243 17.3437 40.2411L17.3772 40.2747C17.4895 40.3911 18.7396 41.7227 18.7427 43.107C18.744 43.6981 18.5066 44.2234 18.0173 44.7126ZM43.1761 16.2883C43.1658 16.2986 43.1558 16.309 43.1461 16.3197L21.3322 39.9618C21.2413 40.0488 21.1584 40.0813 21.0323 40.0813C20.496 40.0813 19.662 39.498 19.2449 39.0875L18.9134 38.7559C18.9119 38.7544 18.9097 38.7521 18.9083 38.7507C18.884 38.7249 18.846 38.6853 18.7956 38.6352C18.4601 38.274 17.869 37.477 17.8683 36.9322C17.8681 36.8086 17.9004 36.7271 17.9863 36.6372L41.6389 14.8128C41.6496 14.8029 41.6601 14.7928 41.6704 14.7826C41.8501 14.6028 42.091 14.5039 42.3489 14.5039C42.5936 14.5039 42.8197 14.5953 42.9861 14.7617L43.1973 14.9727C43.5483 15.3235 43.5384 15.9261 43.1761 16.2883Z" fill="#3F3F3F"/>
</svg>
