<svg width="48" height="48" viewBox="0 0 48 48" fill="none" xmlns="http://www.w3.org/2000/svg">
<g clip-path="url(#clip0_76_213)">
<path d="M39.5 4.5V8.5H43.5L45.5 3L43 3.5L39.5 4.5Z" fill="#DE4A33"/>
<path d="M11 33L2 42L6 46L15.5 37.5L11 33Z" fill="#DE4A33"/>
<path d="M41.5043 31.9577C41.5028 31.9562 41.5028 31.9547 41.5013 31.9532C41.4998 31.9517 41.4983 31.9517 41.4968 31.9502L39.3818 29.8352L39.3803 29.8329L39.378 29.8314L31.4243 21.8784L44.166 9.13669C44.1765 9.12619 44.1818 9.11119 44.1915 9.09919C44.2305 9.05494 44.262 9.00619 44.2905 8.95294C44.3025 8.93194 44.3198 8.91469 44.3288 8.89219C44.3325 8.88319 44.3333 8.87494 44.3363 8.86594C44.3393 8.85694 44.346 8.85019 44.349 8.84194L46.4498 2.49919C46.4595 2.47144 46.4543 2.44294 46.4603 2.41519C46.4715 2.36494 46.4783 2.31544 46.4783 2.26369C46.4783 2.21194 46.4708 2.16244 46.4603 2.11219C46.4543 2.08444 46.4595 2.05594 46.4498 2.02819C46.4438 2.01094 46.4303 1.99894 46.4235 1.98169C46.404 1.93369 46.377 1.89244 46.3478 1.84894C46.3208 1.80919 46.296 1.77094 46.2623 1.73869C46.23 1.70644 46.1933 1.68169 46.1543 1.65544C46.1108 1.62619 46.0688 1.59919 46.02 1.57894C46.0035 1.57144 45.9908 1.55794 45.9728 1.55194C45.945 1.54219 45.9173 1.54744 45.8888 1.54144C45.8385 1.53019 45.7898 1.52269 45.7365 1.52269C45.6855 1.52269 45.6375 1.53019 45.588 1.53994C45.5595 1.54594 45.5303 1.54069 45.5018 1.55044L39.159 3.65044C39.153 3.65269 39.1485 3.65794 39.1433 3.65944C39.0053 3.70519 38.8898 3.78694 38.8005 3.89644L26.121 16.5752L13.9253 4.37944L13.9238 4.37719L13.9215 4.37569L9.76575 0.219938C9.4725 -0.0733125 8.9985 -0.0733125 8.70525 0.219938L0.219754 8.70544C-0.0734956 8.99869 -0.0734956 9.47269 0.219754 9.76594L16.575 26.1212L10.209 32.4879L10.2068 32.4894L10.2053 32.4917L8.08725 34.6097L8.085 34.6112L8.0835 34.6134L1.94175 40.7552C1.94025 40.7567 1.93875 40.7589 1.93875 40.7589C1.3575 41.3439 1.3575 42.2934 1.94175 42.8769L5.12325 46.0584C5.41575 46.3509 5.79975 46.4972 6.18375 46.4972C6.56775 46.4972 6.95175 46.3509 7.24425 46.0584L21.879 31.4237L38.235 47.7797C38.3805 47.9267 38.5725 48.0002 38.7645 48.0002C38.9565 48.0002 39.1485 47.9267 39.2948 47.7804L47.7803 39.2949C48.0735 39.0017 48.0735 38.5277 47.7803 38.2344L41.5043 31.9577ZM14.9798 36.2027L11.7983 33.0212L26.6505 18.1682L26.6528 18.1667L26.6543 18.1644L38.6243 6.19444V8.60569C38.6243 9.02044 38.9595 9.35569 39.3743 9.35569H41.8275L14.9798 36.2027ZM42.3615 4.17019L43.8293 5.63794L43.095 7.85569H40.1228V4.91119L42.3615 4.17019ZM44.358 4.04419L43.956 3.64294L44.5568 3.44419L44.358 4.04419ZM1.8105 9.23569L9.2355 1.81069L10.2113 2.78644L9.681 3.31669C9.38775 3.60994 9.38775 4.08394 9.681 4.37719C9.82725 4.52344 10.0193 4.59694 10.2113 4.59694C10.4033 4.59694 10.5953 4.52344 10.7415 4.37719L11.2718 3.84694L12.3323 4.90744L10.7408 6.49969C10.4475 6.79294 10.4475 7.26694 10.7408 7.56019C10.887 7.70644 11.079 7.77994 11.271 7.77994C11.463 7.77994 11.655 7.70644 11.8013 7.56019L13.3928 5.96794L14.4548 7.02994L13.9238 7.56019C13.6305 7.85344 13.6305 8.32744 13.9238 8.62069C14.07 8.76694 14.262 8.84044 14.454 8.84044C14.646 8.84044 14.838 8.76694 14.9843 8.62069L15.5153 8.09044L16.5758 9.15094L14.9835 10.7432C14.6903 11.0364 14.6903 11.5104 14.9835 11.8037C15.1298 11.9499 15.3218 12.0234 15.5138 12.0234C15.7058 12.0234 15.8978 11.9499 16.044 11.8037L17.6363 10.2114L18.6968 11.2719L18.1665 11.8022C17.8733 12.0954 17.8733 12.5694 18.1665 12.8627C18.3128 13.0089 18.5048 13.0824 18.6968 13.0824C18.8888 13.0824 19.0808 13.0089 19.227 12.8627L19.7573 12.3324L20.8178 13.3929L19.2255 14.9852C18.9323 15.2784 18.9323 15.7524 19.2255 16.0457C19.3718 16.1919 19.5638 16.2654 19.7558 16.2654C19.9478 16.2654 20.1398 16.1919 20.286 16.0457L21.8783 14.4534L22.9388 15.5139L22.4085 16.0442C22.1153 16.3374 22.1153 16.8114 22.4085 17.1047C22.5548 17.2509 22.7468 17.3244 22.9388 17.3244C23.1308 17.3244 23.3228 17.2509 23.469 17.1047L24 16.5752L25.0605 17.6357L17.6355 25.0607L1.8105 9.23569ZM6.183 44.9987L3.0015 41.8172L3.003 41.8149L6.49275 38.3252L9.67425 41.5074L6.183 44.9987ZM10.7348 40.4469L7.55325 37.2647L8.61525 36.2027C8.7615 36.3489 8.95275 36.4224 9.14475 36.4224C9.33675 36.4224 9.52875 36.3489 9.675 36.2027C9.96825 35.9094 9.96825 35.4362 9.675 35.1429L10.737 34.0817L13.9185 37.2632L12.8573 38.3244C12.564 38.0312 12.09 38.0312 11.7968 38.3244C11.5035 38.6177 11.5035 39.0917 11.7968 39.3849L10.7348 40.4469ZM38.7645 46.1897L22.9388 30.3639L30.3638 22.9389L31.425 24.0002L30.894 24.5304C30.6008 24.8229 30.6008 25.2977 30.894 25.5909C31.0403 25.7372 31.2323 25.8107 31.4243 25.8107C31.6163 25.8107 31.8083 25.7372 31.9545 25.5909L32.4855 25.0607L33.546 26.1212L31.9538 27.7134C31.6605 28.0067 31.6605 28.4807 31.9538 28.7739C32.1 28.9202 32.292 28.9937 32.484 28.9937C32.676 28.9937 32.868 28.9202 33.0143 28.7739L34.6065 27.1817L35.667 28.2422L35.1368 28.7724C34.8435 29.0657 34.8435 29.5397 35.1368 29.8329C35.283 29.9792 35.475 30.0527 35.667 30.0527C35.859 30.0527 36.051 29.9792 36.1973 29.8329L36.7275 29.3027L37.788 30.3632L36.1965 31.9554C35.9033 32.2487 35.9033 32.7227 36.1965 33.0159C36.3428 33.1622 36.5348 33.2357 36.7268 33.2357C36.9188 33.2357 37.1108 33.1622 37.257 33.0159L38.8485 31.4237L39.909 32.4842L39.3788 33.0159C39.0863 33.3099 39.0863 33.7839 39.3795 34.0772C39.5258 34.2227 39.7178 34.2962 39.9098 34.2962C40.1018 34.2962 40.2945 34.2227 40.4408 34.0764L40.971 33.5462L42.0308 34.6059L40.4385 36.1974C40.1453 36.4899 40.1453 36.9647 40.4385 37.2579C40.5848 37.4042 40.7768 37.4777 40.9688 37.4777C41.1608 37.4777 41.3528 37.4042 41.499 37.2579L43.0913 35.6664L44.1525 36.7277L43.6215 37.2579C43.3283 37.5512 43.3283 38.0252 43.6215 38.3184C43.7678 38.4647 43.9598 38.5382 44.1518 38.5382C44.3438 38.5382 44.5358 38.4647 44.682 38.3184L45.213 37.7882L46.1888 38.7639L38.7645 46.1897Z" fill="#3F3F3F"/>
</g>
<defs>
<clipPath id="clip0_76_213">
<rect width="48" height="48" fill="white"/>
</clipPath>
</defs>
</svg>
