<svg width="49" height="49" viewBox="0 0 49 49" fill="none" xmlns="http://www.w3.org/2000/svg">
<circle cx="24.5" cy="24.5" r="12.5" fill="#DE4A33"/>
<path d="M21 32.5L17.5 26L24 17.5L25.5 17L31.5 26L28 32.5H21Z" fill="white" stroke="#3F3F3F"/>
<path d="M48.9996 22.1617C48.999 21.7237 48.8385 21.3011 48.5481 20.9732C48.2578 20.6454 47.8577 20.4349 47.423 20.3813L43.0925 19.8148C42.6241 17.9796 41.8968 16.2205 40.9323 14.5904L43.5975 11.1712C43.8662 10.8255 43.9994 10.3936 43.9721 9.95661C43.9447 9.51962 43.7586 9.10768 43.4488 8.79827L40.1693 5.52387C39.859 5.21492 39.4465 5.02992 39.0094 5.00365C38.5723 4.97737 38.1406 5.11162 37.7955 5.38116L34.3271 8.04718C32.7006 7.0767 30.944 6.34301 29.1104 5.86822L28.5781 1.57355C28.5237 1.13911 28.3126 0.739481 27.9844 0.44973C27.6561 0.159978 27.2334 5.25091e-05 26.7956 0L22.1608 0.00426996C21.723 0.00526426 21.3005 0.166091 20.9729 0.456543C20.6452 0.746995 20.4349 1.14709 20.3813 1.58167L19.8143 5.91138C17.9792 6.3799 16.2202 7.10755 14.5904 8.07238L11.1712 5.40723C10.8255 5.13843 10.3936 5.00508 9.95662 5.03222C9.51961 5.05936 9.10754 5.24513 8.79781 5.55462L5.52425 8.835C5.21511 9.1452 5.02995 9.55766 5.00359 9.99481C4.97723 10.432 5.11149 10.8637 5.38112 11.2088L8.04714 14.6772C7.07663 16.3037 6.34295 18.0603 5.86822 19.8939L1.57355 20.4266C1.13911 20.481 0.739462 20.6921 0.449706 21.0203C0.159951 21.3485 3.20567e-05 21.7713 0 22.2091L0.00426996 26.8434C0.00526426 27.2813 0.166091 27.7037 0.456543 28.0314C0.746995 28.3591 1.14709 28.5694 1.58167 28.6229L5.91138 29.1899C6.3799 31.025 7.10755 32.784 8.07238 34.4138L5.40723 37.8331C5.1384 38.1787 5.00502 38.6106 5.03217 39.0476C5.05931 39.4846 5.24509 39.8967 5.55462 40.2064L8.835 43.48C9.14525 43.789 9.55769 43.9741 9.99482 44.0005C10.4319 44.0269 10.8636 43.8926 11.2088 43.6231L14.6772 40.9571C16.3037 41.9276 18.0603 42.6613 19.8939 43.136L20.4266 47.4307C20.481 47.8652 20.6921 48.2648 21.0203 48.5545C21.3486 48.8443 21.7713 49.0042 22.2091 49.0043L26.8434 49C27.2813 48.9991 27.7037 48.8383 28.0314 48.5479C28.359 48.2574 28.5692 47.8572 28.6225 47.4226L29.1899 43.0929C31.0251 42.6242 32.7842 41.8966 34.4142 40.9319L37.8331 43.597C38.1787 43.8661 38.6107 43.9996 39.0478 43.9724C39.485 43.9453 39.8972 43.7594 40.2068 43.4496L43.4804 40.1693C43.7894 39.859 43.9744 39.4465 44.0007 39.0094C44.027 38.5723 43.8927 38.1406 43.6231 37.7955L40.9579 34.3266C41.9276 32.6999 42.6609 30.9436 43.136 29.1104L47.4307 28.5776C47.8651 28.5231 48.2646 28.3119 48.5544 27.9837C48.8442 27.6556 49.0043 27.233 49.0047 26.7952L48.9996 22.1617ZM47.2154 26.8413L42.9207 27.3737C42.56 27.4182 42.2215 27.5719 41.9505 27.8142C41.6796 28.0564 41.4892 28.3758 41.4048 28.7293C40.9897 30.3824 40.3332 31.9652 39.4566 33.4269C39.2665 33.7372 39.1758 34.0983 39.1967 34.4616C39.2176 34.825 39.3492 35.1733 39.5737 35.4597L42.2414 38.9328L38.9089 42.217L35.4892 39.5515C35.2023 39.328 34.854 39.1975 34.4909 39.1772C34.1278 39.157 33.7672 39.2481 33.4572 39.4382C31.9972 40.3188 30.4149 40.9785 28.7618 41.3959C28.4088 41.4818 28.0903 41.6732 27.8488 41.9446C27.6073 42.216 27.4542 42.5546 27.41 42.9152L26.8417 47.25L22.163 47.2154L21.6306 42.9211C21.5857 42.5603 21.4319 42.2218 21.1896 41.9507C20.9473 41.6796 20.6281 41.4889 20.2745 41.404C18.621 40.9898 17.0379 40.3333 15.5765 39.4557C15.2662 39.2661 14.9053 39.1757 14.5422 39.1967C14.179 39.2177 13.831 39.349 13.5446 39.5732L10.0715 42.2414L6.78723 38.9089L9.45282 35.4892C9.67627 35.2022 9.80684 34.8538 9.82707 34.4907C9.8473 34.1275 9.75624 33.7668 9.56604 33.4568C8.68554 31.9972 8.02585 30.4153 7.6084 28.7626C7.52298 28.4093 7.33174 28.0905 7.06025 27.8487C6.78875 27.607 6.44994 27.4539 6.08911 27.41L1.75427 26.8417L1.78888 22.163L6.08314 21.6306C6.44395 21.5857 6.78249 21.4319 7.05357 21.1896C7.32465 20.9473 7.51537 20.6281 7.60029 20.2745C8.01443 18.621 8.67096 17.0379 9.54853 15.5765C9.73833 15.2662 9.82878 14.9053 9.80779 14.5422C9.78679 14.179 9.65534 13.8309 9.43104 13.5446L6.76288 10.0715L10.0954 6.78723L13.5151 9.45282C13.802 9.67647 14.1504 9.80716 14.5136 9.82739C14.8768 9.84763 15.2375 9.75644 15.5475 9.56604C17.0071 8.68554 18.5889 8.02585 20.2416 7.6084C20.595 7.52298 20.9138 7.33174 21.1555 7.06025C21.3972 6.78875 21.5503 6.44994 21.5943 6.08911L22.1625 1.75427L26.8417 1.78888L27.3741 6.08313C27.419 6.44379 27.5727 6.78221 27.8149 7.05326C28.057 7.32432 28.376 7.51513 28.7293 7.60028C30.3831 8.01458 31.9665 8.67109 33.4282 9.54852C33.7386 9.73797 34.0994 9.82822 34.4625 9.80723C34.8256 9.78623 35.1736 9.65499 35.4602 9.43103L38.9337 6.76245L42.2167 10.0954L39.5515 13.5146C39.328 13.8017 39.1974 14.1502 39.1772 14.5134C39.1571 14.8767 39.2483 15.2375 39.4387 15.5475C40.319 17.0075 40.9784 18.5898 41.3955 20.2429C41.4814 20.596 41.6729 20.9145 41.9445 21.156C42.2161 21.3974 42.5549 21.5503 42.9156 21.5943L47.2496 22.1625L47.2547 26.7969L48.1297 26.796L47.2154 26.8413Z" fill="#3F3F3F"/>
<path d="M24.5021 11.0316C20.9324 11.0484 17.5139 12.4749 14.9909 15.0004C12.468 17.5258 11.0449 20.9458 11.0316 24.5155C11.0228 36.4484 25.6241 42.4782 34.0375 34.0177C42.4853 25.6923 36.3705 10.9526 24.5021 11.0316ZM32.7984 32.7818C30.5953 34.9685 27.6179 36.197 24.5138 36.2C21.4097 36.203 18.4299 34.9804 16.2225 32.7979C8.85107 25.5199 14.1435 12.7251 24.5023 12.7816C34.8274 12.7143 40.151 25.5381 32.7984 32.7818Z" fill="#3F3F3F"/>
<path d="M25.9334 16.3549C25.7698 16.1283 25.5548 15.9439 25.306 15.8167C25.0573 15.6894 24.7819 15.6231 24.5025 15.623C24.223 15.623 23.9476 15.6893 23.6988 15.8165C23.45 15.9436 23.2349 16.128 23.0713 16.3545L16.9339 25.0318C16.7453 25.3007 16.6355 25.6169 16.617 25.9448C16.5984 26.2727 16.6718 26.5993 16.8288 26.8878L19.9033 32.4813C20.0544 32.7564 20.2767 32.986 20.5469 33.1458C20.8171 33.3057 21.1253 33.39 21.4392 33.39H27.5646C27.8786 33.39 28.1869 33.3057 28.4572 33.1458C28.7274 32.986 28.9498 32.7564 29.101 32.4813L32.1746 26.889C32.3322 26.6004 32.4059 26.2736 32.3875 25.9453C32.3691 25.617 32.2592 25.3005 32.0704 25.0314L25.9334 16.3549ZM24.499 25.7907C24.8247 25.7926 25.1364 25.923 25.3665 26.1535C25.5965 26.3839 25.7263 26.6959 25.7276 27.0216C25.7289 27.3472 25.6016 27.6602 25.3734 27.8925C25.1452 28.1248 24.8345 28.2577 24.5089 28.2622C24.1833 28.2603 23.8716 28.1299 23.6415 27.8994C23.4115 27.6689 23.2817 27.357 23.2804 27.0313C23.2791 26.7057 23.4064 26.3927 23.6346 26.1604C23.8628 25.9281 24.1734 25.7952 24.499 25.7907ZM27.5646 31.64L21.4371 31.6387L18.3626 26.0422L23.6254 18.6017V24.1883C22.9441 24.3999 22.3614 24.849 21.9832 25.4539C21.605 26.0589 21.4564 26.7794 21.5645 27.4846C21.6726 28.1898 22.0302 28.8327 22.5722 29.2966C23.1143 29.7604 23.8048 30.0143 24.5182 30.0122C25.2316 30.01 25.9205 29.7518 26.4597 29.2847C26.9989 28.8176 27.3525 28.1724 27.4563 27.4666C27.5601 26.7608 27.4072 26.0412 27.0253 25.4386C26.6434 24.836 26.0579 24.3905 25.3754 24.183L25.3754 18.5973L30.6417 26.0452L27.5646 31.64Z" fill="#3F3F3F"/>
</svg>
