<svg width="48" height="48" viewBox="0 0 48 48" fill="none" xmlns="http://www.w3.org/2000/svg">
<g clip-path="url(#clip0_76_237)">
<circle cx="24.5" cy="8.5" r="1.5" fill="#DE4A33"/>
<path d="M46.5 44.5L46 46L44.5 46.5L39.5 42L42 39.5L46.5 44.5Z" fill="#DE4A33"/>
<path d="M13 11.5V34H18.5V11.5H13Z" fill="#DE4A33"/>
<path d="M5.24954 34.9841H9.00779C9.83485 34.9841 10.5078 34.3111 10.5078 33.4841V18.9701C10.5078 18.143 9.83485 17.4701 9.00779 17.4701H5.24954C4.42248 17.4701 3.74963 18.1429 3.74963 18.9701V33.4841C3.74963 34.3111 4.42238 34.9841 5.24954 34.9841ZM4.87463 18.9701C4.87463 18.7633 5.04282 18.5951 5.24954 18.5951H9.00779C9.2146 18.5951 9.38279 18.7633 9.38279 18.9701V33.4841C9.38279 33.6909 9.2146 33.8591 9.00779 33.8591H5.24954C5.04282 33.8591 4.87463 33.6909 4.87463 33.4841V18.9701ZM14.0333 10.7034C13.2062 10.7034 12.5334 11.3762 12.5334 12.2034V33.4841C12.5334 34.3111 13.2062 34.9841 14.0333 34.9841H17.7915C18.6186 34.9841 19.2914 34.3111 19.2914 33.4841V12.2034C19.2914 11.3763 18.6186 10.7034 17.7915 10.7034H14.0333ZM18.1664 12.2034V33.4841C18.1664 33.6909 17.9982 33.8591 17.7915 33.8591H14.0333C13.8265 33.8591 13.6584 33.6909 13.6584 33.4841V12.2034C13.6584 11.9966 13.8265 11.8284 14.0333 11.8284H17.7915C17.9982 11.8284 18.1664 11.9966 18.1664 12.2034ZM7.12867 13.438C8.40967 13.438 9.45188 12.3958 9.45188 11.1148C9.45188 10.8314 9.4007 10.5597 9.30732 10.3083L14.3693 6.85224C14.7799 7.21796 15.3204 7.44081 15.9124 7.44081C16.7013 7.44081 17.3991 7.04528 17.8192 6.44246L22.3895 8.17599C22.379 8.26571 22.3729 8.35684 22.3729 8.44937C22.3729 9.73037 23.4151 10.7726 24.6961 10.7726C25.9771 10.7726 27.0193 9.73037 27.0193 8.44937C27.0193 8.12499 26.9523 7.81599 26.8316 7.53531L32.7189 3.06915L32.6373 3.61412C32.5913 3.92134 32.803 4.20774 33.1103 4.25368C33.4169 4.30018 33.7039 4.08803 33.7498 3.78071L34.0361 1.86915C34.0822 1.56193 33.8704 1.27553 33.5632 1.22959L31.6516 0.943275C31.3443 0.897338 31.058 1.10903 31.012 1.41624C30.966 1.72346 31.1778 2.00987 31.485 2.05581L32.0765 2.1444L26.1507 6.63971C25.7523 6.31871 25.2464 6.12606 24.6961 6.12606C23.9073 6.12606 23.2094 6.52159 22.7893 7.1244L18.219 5.39087C18.2296 5.30115 18.2356 5.21012 18.2356 5.11759C18.2356 3.83659 17.1934 2.79437 15.9124 2.79437C14.6314 2.79437 13.5893 3.83659 13.5893 5.11759C13.5893 5.40099 13.6404 5.67259 13.7338 5.92393L8.67188 9.38003C8.26117 9.01431 7.7206 8.79146 7.12876 8.79146C5.84776 8.79146 4.80563 9.83368 4.80563 11.1147C4.80563 12.3957 5.84767 13.438 7.12867 13.438ZM24.6961 7.25115C25.3569 7.25115 25.8943 7.78862 25.8943 8.44937C25.8943 9.11003 25.3569 9.64759 24.6961 9.64759C24.0354 9.64759 23.4979 9.11012 23.4979 8.44937C23.4979 7.78871 24.0354 7.25115 24.6961 7.25115ZM15.9124 3.91946C16.5731 3.91946 17.1106 4.45693 17.1106 5.11768C17.1106 5.77843 16.5731 6.3159 15.9124 6.3159C15.2517 6.3159 14.7143 5.77843 14.7143 5.11768C14.7143 4.45693 15.2517 3.91946 15.9124 3.91946ZM7.12867 9.91656C7.78942 9.91656 8.32688 10.454 8.32688 11.1148C8.32688 11.7755 7.78942 12.313 7.12867 12.313C6.46801 12.313 5.93054 11.7755 5.93054 11.1148C5.93054 10.454 6.46801 9.91656 7.12867 9.91656ZM46.4273 43.3535L42.162 39.0882C42.0565 38.9826 41.9136 38.9234 41.7643 38.9234C41.6152 38.9234 41.4721 38.9826 41.3666 39.0882L41.3464 39.1084L39.2729 37.035C40.1292 35.7542 40.6298 34.2164 40.6298 32.5635C40.6298 29.694 39.1224 27.1712 36.859 25.7411V8.44412C36.859 7.61706 36.1861 6.94412 35.359 6.94412H31.6008C30.7737 6.94412 30.1008 7.61696 30.1008 8.44412V24.8827C29.3759 25.1157 28.695 25.4477 28.0752 25.8644V15.9627C28.0752 15.1356 27.4024 14.4627 26.5753 14.4627H22.8171C21.99 14.4627 21.3171 15.1355 21.3171 15.9627V33.4841C21.3171 34.3111 21.99 34.9841 22.8171 34.9841H24.8685C25.0562 35.5794 25.3119 36.1444 25.6253 36.6716H2.06213V1.49968C2.06213 1.18909 1.81023 0.937181 1.49963 0.937181C1.18904 0.937181 0.937134 1.18909 0.937134 1.49968V37.2341C0.937134 37.5447 1.18904 37.7966 1.49963 37.7966H26.4323C27.9129 39.5287 30.1113 40.6298 32.5632 40.6298C34.2161 40.6298 35.7541 40.1294 37.0348 39.273L39.1084 41.3464L39.0881 41.3667C38.8684 41.5863 38.8684 41.9425 39.0881 42.1621L43.3535 46.4274C43.7772 46.8512 44.3337 47.063 44.8904 47.063C45.4471 47.063 46.0036 46.8512 46.4274 46.4274C47.2748 45.58 47.2748 44.2009 46.4273 43.3535ZM31.2258 8.44412C31.2258 8.23731 31.394 8.06912 31.6008 8.06912H35.359C35.5659 8.06912 35.734 8.23731 35.734 8.44412V25.1472C34.7602 24.7292 33.6885 24.4969 32.5633 24.4969C32.1076 24.4969 31.6612 24.5369 31.2258 24.6099V8.44412ZM22.817 33.8591C22.6102 33.8591 22.442 33.6909 22.442 33.4841V15.9627C22.442 15.7559 22.6102 15.5877 22.817 15.5877H26.5752C26.7819 15.5877 26.9501 15.7559 26.9501 15.9627V26.7783C25.4387 28.2452 24.4968 30.2958 24.4968 32.5635C24.4968 33.0046 24.5338 33.437 24.6023 33.8591H22.817ZM25.6218 32.5634C25.6218 28.7358 28.7357 25.6219 32.5632 25.6219C36.3908 25.6219 39.5047 28.7358 39.5047 32.5634C39.5047 36.3908 36.3908 39.5047 32.5632 39.5047C28.7357 39.5047 25.6218 36.3908 25.6218 32.5634ZM37.9307 38.578C38.1584 38.3746 38.3745 38.1586 38.5779 37.9307L40.5509 39.9037L39.9038 40.5509L37.9307 38.578ZM45.6319 45.632C45.435 45.8288 45.1718 45.9372 44.8904 45.9372C44.6091 45.9372 44.3457 45.8288 44.1489 45.632L40.2814 41.7644L41.7643 40.2814L45.6319 44.149C46.0406 44.5578 46.0406 45.2231 45.6319 45.632ZM32.5632 26.365C29.1455 26.365 26.365 29.1455 26.365 32.5634C26.365 35.9812 29.1455 38.7617 32.5632 38.7617C35.9811 38.7617 38.7616 35.9812 38.7616 32.5634C38.7616 29.1455 35.9811 26.365 32.5632 26.365ZM32.5632 37.6367C29.7658 37.6367 27.49 35.3609 27.49 32.5634C27.49 29.7659 29.7658 27.49 32.5632 27.49C35.3607 27.49 37.6366 29.7659 37.6366 32.5634C37.6366 35.3609 35.3607 37.6367 32.5632 37.6367Z" fill="#3F3F3F"/>
</g>
<defs>
<clipPath id="clip0_76_237">
<rect width="48" height="48" fill="white"/>
</clipPath>
</defs>
</svg>
