<svg width="80" height="80" viewBox="0 0 80 80" fill="none" xmlns="http://www.w3.org/2000/svg">
<circle cx="40" cy="40" r="40" fill="#DE4A33"/>
<path d="M40.2162 25.151C40.0477 25.151 39.8862 25.0867 39.7671 24.9724C39.648 24.858 39.5811 24.7029 39.5811 24.5412V22.102C39.5811 21.9403 39.648 21.7852 39.7671 21.6708C39.8862 21.5564 40.0477 21.4922 40.2162 21.4922C40.3846 21.4922 40.5462 21.5564 40.6653 21.6708C40.7844 21.7852 40.8513 21.9403 40.8513 22.102V24.5412C40.8513 24.7029 40.7844 24.858 40.6653 24.9724C40.5462 25.0867 40.3846 25.151 40.2162 25.151Z" fill="white"/>
<path d="M33.8642 26.7837C33.7526 26.7838 33.643 26.7557 33.5463 26.7021C33.4496 26.6486 33.3693 26.5716 33.3135 26.4788L32.0433 24.3664C32.0009 24.2971 31.9733 24.2203 31.9619 24.1406C31.9506 24.061 31.9557 23.9799 31.9772 23.9022C31.9986 23.8244 32.0358 23.7515 32.0867 23.6876C32.1375 23.6237 32.2011 23.5702 32.2736 23.5299C32.3462 23.4897 32.4263 23.4637 32.5093 23.4533C32.5924 23.443 32.6768 23.4485 32.7576 23.4695C32.8384 23.4906 32.9141 23.5268 32.9803 23.5761C33.0465 23.6254 33.1019 23.6867 33.1433 23.7566L34.4136 25.869C34.4693 25.9616 34.4987 26.0667 34.4987 26.1737C34.4987 26.2807 34.4694 26.3858 34.4138 26.4785C34.3581 26.5712 34.278 26.6482 34.1815 26.7017C34.0851 26.7553 33.9756 26.7836 33.8642 26.7837Z" fill="white"/>
<path d="M29.2141 31.2487C29.1025 31.2489 28.993 31.2207 28.8965 31.167L26.6958 29.9474C26.5511 29.8659 26.4458 29.7329 26.4029 29.5772C26.3601 29.4215 26.3831 29.2559 26.4669 29.1164C26.5508 28.977 26.6887 28.875 26.8506 28.8328C27.0124 28.7906 27.1851 28.8116 27.3309 28.8912L29.5316 30.1108C29.6527 30.1779 29.7473 30.2815 29.8008 30.4056C29.8543 30.5296 29.8637 30.6671 29.8275 30.7967C29.7913 30.9264 29.7116 31.041 29.6007 31.1227C29.4898 31.2044 29.3539 31.2487 29.2141 31.2487Z" fill="white"/>
<path d="M27.5131 37.3465H24.9725C24.8041 37.3465 24.6425 37.2823 24.5234 37.1679C24.4043 37.0536 24.3374 36.8985 24.3374 36.7368C24.3374 36.575 24.4043 36.4199 24.5234 36.3056C24.6425 36.1912 24.8041 36.127 24.9725 36.127H27.5131C27.6815 36.127 27.8431 36.1912 27.9622 36.3056C28.0813 36.4199 28.1482 36.575 28.1482 36.7368C28.1482 36.8985 28.0813 37.0536 27.9622 37.1679C27.8431 37.2823 27.6815 37.3465 27.5131 37.3465Z" fill="white"/>
<path d="M27.015 44.6648C26.8752 44.6648 26.7393 44.6205 26.6284 44.5388C26.5174 44.4571 26.4377 44.3425 26.4015 44.2129C26.3653 44.0832 26.3747 43.9457 26.4282 43.8217C26.4817 43.6977 26.5763 43.5941 26.6974 43.527L28.8982 42.3074C28.9704 42.2667 29.0504 42.2401 29.1333 42.2293C29.2163 42.2184 29.3007 42.2233 29.3817 42.2439C29.4627 42.2644 29.5386 42.3002 29.6052 42.349C29.6717 42.3979 29.7275 42.4589 29.7694 42.5285C29.8113 42.5982 29.8384 42.6751 29.8492 42.7548C29.86 42.8346 29.8543 42.9156 29.8323 42.9932C29.8104 43.0708 29.7727 43.1435 29.7213 43.207C29.67 43.2706 29.6061 43.3238 29.5333 43.3635L27.3326 44.5831C27.2361 44.6369 27.1265 44.6651 27.015 44.6648Z" fill="white"/>
<path d="M53.4162 44.6648C53.3047 44.6651 53.1951 44.6369 53.0986 44.5831L50.8979 43.3635C50.8251 43.3238 50.7612 43.2706 50.7098 43.207C50.6585 43.1435 50.6208 43.0708 50.5988 42.9932C50.5769 42.9156 50.5712 42.8346 50.582 42.7548C50.5928 42.6751 50.6199 42.5982 50.6618 42.5285C50.7036 42.4589 50.7595 42.3979 50.826 42.349C50.8925 42.3002 50.9685 42.2644 51.0495 42.2439C51.1304 42.2233 51.2148 42.2184 51.2978 42.2293C51.3808 42.2401 51.4608 42.2667 51.533 42.3074L53.7338 43.527C53.8548 43.5941 53.9495 43.6977 54.003 43.8217C54.0565 43.9457 54.0658 44.0832 54.0297 44.2129C53.9935 44.3425 53.9137 44.4571 53.8028 44.5388C53.6919 44.6205 53.556 44.6648 53.4162 44.6648Z" fill="white"/>
<path d="M55.4584 37.3465H52.9178C52.7494 37.3465 52.5879 37.2823 52.4687 37.1679C52.3496 37.0536 52.2827 36.8985 52.2827 36.7368C52.2827 36.575 52.3496 36.4199 52.4687 36.3056C52.5879 36.1912 52.7494 36.127 52.9178 36.127H55.4584C55.6268 36.127 55.7884 36.1912 55.9075 36.3056C56.0266 36.4199 56.0935 36.575 56.0935 36.7368C56.0935 36.8985 56.0266 37.0536 55.9075 37.1679C55.7884 37.2823 55.6268 37.3465 55.4584 37.3465Z" fill="white"/>
<path d="M50.3765 36.1269H47.2008C47.2008 35.48 46.9332 34.8595 46.4567 34.4021C45.9803 33.9447 45.3341 33.6877 44.6603 33.6877C43.9865 33.6877 43.3403 33.9447 42.8639 34.4021C42.3874 34.8595 42.1198 35.48 42.1198 36.1269H40.8495V34.1853C40.8494 34.0878 40.8249 33.9917 40.7782 33.9052C40.7315 33.8186 40.6638 33.7441 40.5809 33.6878C40.498 33.6316 40.4022 33.5952 40.3016 33.5818C40.201 33.5684 40.0986 33.5784 40.0028 33.6108C39.8107 33.6796 39.6041 33.7027 39.4007 33.6782C39.1972 33.6536 39.003 33.5821 38.8346 33.4698C38.6661 33.3576 38.5285 33.2078 38.4335 33.0333C38.3385 32.8589 38.2888 32.665 38.2888 32.4681C38.2888 32.2712 38.3385 32.0773 38.4335 31.9028C38.5285 31.7284 38.6661 31.5786 38.8346 31.4663C39.003 31.3541 39.1972 31.2826 39.4007 31.258C39.6041 31.2335 39.8107 31.2566 40.0028 31.3253C40.0986 31.3578 40.201 31.3677 40.3016 31.3543C40.4022 31.341 40.498 31.3046 40.5809 31.2483C40.6638 31.1921 40.7315 31.1175 40.7782 31.031C40.8249 30.9444 40.8494 30.8484 40.8495 30.7509V26.9799C40.8495 26.8182 40.7826 26.6631 40.6635 26.5487C40.5443 26.4344 40.3828 26.3701 40.2143 26.3701C37.7474 26.3723 35.3557 27.1854 33.4371 28.6742C31.5185 30.1629 30.1887 32.2376 29.669 34.553C29.1494 36.8683 29.4712 39.2847 30.5809 41.4C31.6906 43.5153 33.5213 45.202 35.7684 46.1794V47.1032H35.1333C34.6279 47.1032 34.1433 47.296 33.7859 47.639C33.4286 47.9821 33.2279 48.4474 33.2279 48.9326V50.1522C33.2279 50.6374 33.4286 51.1027 33.7859 51.4458C34.1433 51.7889 34.6279 51.9816 35.1333 51.9816H35.7684V53.811C35.7694 54.6193 36.1043 55.3943 36.6996 55.9659C37.295 56.5375 38.1021 56.859 38.9441 56.86H41.4846C42.3265 56.859 43.1337 56.5375 43.729 55.9659C44.3244 55.3943 44.6593 54.6193 44.6603 53.811V51.9816H45.2954C45.8008 51.9816 46.2854 51.7889 46.6427 51.4458C47.0001 51.1027 47.2008 50.6374 47.2008 50.1522V48.9326C47.2008 48.4474 47.0001 47.9821 46.6427 47.639C46.2854 47.296 45.8008 47.1032 45.2954 47.1032H44.6603V46.1794C46.5562 45.3631 48.1651 44.0369 49.2923 42.361C50.4196 40.6852 51.0167 38.7316 51.0116 36.7367C51.0116 36.5749 50.9447 36.4198 50.8256 36.3055C50.7065 36.1911 50.545 36.1269 50.3765 36.1269ZM39.5792 27.6098V30.0289C38.9054 30.0289 38.2592 30.2859 37.7828 30.7433C37.3063 31.2008 37.0387 31.8212 37.0387 32.4681C37.0387 33.115 37.3063 33.7354 37.7828 34.1929C38.2592 34.6503 38.9054 34.9073 39.5792 34.9073V36.1269H37.5569C37.4553 36.1269 37.3552 36.1504 37.265 36.1953C37.1748 36.2402 37.0971 36.3052 37.0385 36.3849C36.9799 36.4646 36.942 36.5567 36.9281 36.6533C36.9142 36.7499 36.9247 36.8484 36.9586 36.9403C37.0303 37.1248 37.0543 37.3232 37.0287 37.5185C37.0032 37.7138 36.9287 37.9003 36.8118 38.062C36.6948 38.2237 36.5388 38.3558 36.3571 38.4471C36.1754 38.5383 35.9734 38.586 35.7684 38.586C35.5634 38.586 35.3614 38.5383 35.1797 38.4471C34.998 38.3558 34.842 38.2237 34.725 38.062C34.6081 37.9003 34.5336 37.7138 34.508 37.5185C34.4825 37.3232 34.5065 37.1248 34.5782 36.9403C34.6121 36.8484 34.6226 36.7499 34.6087 36.6533C34.5948 36.5567 34.5569 36.4646 34.4983 36.3849C34.4397 36.3052 34.362 36.2402 34.2718 36.1953C34.1816 36.1504 34.0815 36.1269 33.9799 36.1269H30.7083C30.8651 33.9176 31.85 31.8376 33.4809 30.2718C35.1118 28.706 37.2781 27.7604 39.5792 27.6098ZM36.6417 45.2129C34.9808 44.5725 33.5424 43.4941 32.4929 42.1021C31.4434 40.7101 30.8256 39.0614 30.7108 37.3465H33.2279C33.2279 37.9934 33.4955 38.6138 33.972 39.0712C34.4484 39.5287 35.0946 39.7857 35.7684 39.7857C36.4422 39.7857 37.0884 39.5287 37.5648 39.0712C38.0413 38.6138 38.3089 37.9934 38.3089 37.3465H39.5792V39.2881C39.5793 39.3856 39.6037 39.4816 39.6505 39.5682C39.6972 39.6547 39.7649 39.7292 39.8478 39.7855C39.9307 39.8418 40.0265 39.8781 40.1271 39.8915C40.2276 39.9049 40.3301 39.895 40.4258 39.8625C40.618 39.7937 40.8246 39.7706 41.028 39.7952C41.2315 39.8197 41.4257 39.8912 41.5941 40.0035C41.7625 40.1158 41.9002 40.2656 41.9952 40.44C42.0902 40.6144 42.1399 40.8084 42.1399 41.0053C42.1399 41.2021 42.0902 41.3961 41.9952 41.5705C41.9002 41.7449 41.7625 41.8947 41.5941 42.007C41.4257 42.1193 41.2315 42.1908 41.028 42.2153C40.8246 42.2399 40.618 42.2168 40.4258 42.148C40.3301 42.1155 40.2276 42.1056 40.1271 42.119C40.0265 42.1324 39.9307 42.1687 39.8478 42.225C39.7649 42.2813 39.6972 42.3558 39.6505 42.4424C39.6037 42.5289 39.5793 42.625 39.5792 42.7224V47.1032H37.0387V45.7775C37.0385 45.6562 37.0007 45.5376 36.93 45.437C36.8593 45.3364 36.7589 45.2584 36.6417 45.2129ZM43.39 53.811C43.39 54.2962 43.1893 54.7615 42.8319 55.1046C42.4746 55.4476 41.99 55.6404 41.4846 55.6404H38.9441C38.4387 55.6404 37.9541 55.4476 37.5967 55.1046C37.2394 54.7615 37.0387 54.2962 37.0387 53.811V51.9816H38.3089V53.811C38.3089 53.9727 38.3759 54.1278 38.495 54.2422C38.6141 54.3565 38.7756 54.4208 38.9441 54.4208C39.1125 54.4208 39.2741 54.3565 39.3932 54.2422C39.5123 54.1278 39.5792 53.9727 39.5792 53.811V51.9816H40.8495V53.811C40.8495 53.9727 40.9164 54.1278 41.0355 54.2422C41.1546 54.3565 41.3162 54.4208 41.4846 54.4208C41.6531 54.4208 41.8146 54.3565 41.9337 54.2422C42.0528 54.1278 42.1198 53.9727 42.1198 53.811V51.9816H43.39V53.811ZM45.2954 48.3228C45.4639 48.3228 45.6254 48.3871 45.7445 48.5014C45.8636 48.6158 45.9306 48.7709 45.9306 48.9326V50.1522C45.9306 50.3139 45.8636 50.469 45.7445 50.5834C45.6254 50.6978 45.4639 50.762 45.2954 50.762H35.1333C34.9648 50.762 34.8033 50.6978 34.6842 50.5834C34.565 50.469 34.4981 50.3139 34.4981 50.1522V48.9326C34.4981 48.7709 34.565 48.6158 34.6842 48.5014C34.8033 48.3871 34.9648 48.3228 35.1333 48.3228H45.2954ZM43.787 45.2129C43.6697 45.2584 43.5693 45.3365 43.4985 45.4373C43.4278 45.538 43.39 45.6567 43.39 45.7781V47.1032H40.8495V43.4444C41.5233 43.4444 42.1695 43.1875 42.6459 42.73C43.1224 42.2726 43.39 41.6522 43.39 41.0053C43.39 40.3583 43.1224 39.7379 42.6459 39.2805C42.1695 38.823 41.5233 38.5661 40.8495 38.5661V37.3465H42.8717C42.9734 37.3464 43.0735 37.3229 43.1637 37.278C43.2539 37.2331 43.3316 37.1681 43.3902 37.0884C43.4488 37.0087 43.4867 36.9167 43.5006 36.82C43.5145 36.7234 43.504 36.625 43.47 36.533C43.3984 36.3485 43.3744 36.1502 43.3999 35.9548C43.4255 35.7595 43.5 35.573 43.6169 35.4113C43.7339 35.2496 43.8899 35.1175 44.0716 35.0263C44.2532 34.935 44.4552 34.8874 44.6603 34.8874C44.8653 34.8874 45.0673 34.935 45.249 35.0263C45.4307 35.1175 45.5867 35.2496 45.7037 35.4113C45.8206 35.573 45.8951 35.7595 45.9206 35.9548C45.9462 36.1502 45.9222 36.3485 45.8505 36.533C45.8166 36.625 45.8061 36.7234 45.82 36.82C45.8339 36.9167 45.8718 37.0087 45.9304 37.0884C45.989 37.1681 46.0667 37.2331 46.1569 37.278C46.2471 37.3229 46.3472 37.3464 46.4488 37.3465H49.7204C49.6051 39.0616 48.9868 40.7103 47.9369 42.1023C46.8869 43.4943 45.4482 44.5727 43.787 45.2129Z" fill="white"/>
<path d="M45.2963 21.4922C45.1278 21.4922 44.9663 21.5564 44.8472 21.6708C44.7281 21.7852 44.6611 21.9403 44.6611 22.102V25.151C43.9874 25.151 43.3412 25.408 42.8647 25.8654C42.3883 26.3228 42.1206 26.9432 42.1206 27.5902C42.1206 28.2371 42.3883 28.8575 42.8647 29.3149C43.3412 29.7724 43.9874 30.0293 44.6611 30.0293V31.8587C44.6611 32.0205 44.7281 32.1756 44.8472 32.2899C44.9663 32.4043 45.1278 32.4685 45.2963 32.4685H47.9537C48.0553 32.4685 48.1554 32.445 48.2456 32.4001C48.3359 32.3552 48.4135 32.2902 48.4721 32.2105C48.5308 32.1308 48.5686 32.0388 48.5825 31.9421C48.5964 31.8455 48.5859 31.747 48.552 31.6551C48.4804 31.4706 48.4563 31.2722 48.4819 31.0769C48.5075 30.8816 48.5819 30.6951 48.6989 30.5334C48.8158 30.3717 48.9718 30.2396 49.1535 30.1483C49.3352 30.0571 49.5372 30.0094 49.7422 30.0094C49.9473 30.0094 50.1493 30.0571 50.331 30.1483C50.5127 30.2396 50.6686 30.3717 50.7856 30.5334C50.9026 30.6951 50.977 30.8816 51.0026 31.0769C51.0282 31.2722 51.0041 31.4706 50.9325 31.6551C50.8985 31.747 50.8881 31.8455 50.902 31.9421C50.9159 32.0388 50.9537 32.1308 51.0123 32.2105C51.0709 32.2902 51.1486 32.3552 51.2388 32.4001C51.329 32.445 51.4292 32.4685 51.5308 32.4685H55.4584C55.6269 32.4685 55.7884 32.4043 55.9076 32.2899C56.0267 32.1756 56.0936 32.0205 56.0936 31.8587C56.0904 29.1103 54.9518 26.4753 52.9276 24.5319C50.9034 22.5884 48.1589 21.4953 45.2963 21.4922ZM52.2828 31.2489C52.2828 30.602 52.0151 29.9816 51.5387 29.5242C51.0622 29.0667 50.416 28.8098 49.7422 28.8098C49.0684 28.8098 48.4222 29.0667 47.9458 29.5242C47.4694 29.9816 47.2017 30.602 47.2017 31.2489H45.9314V29.3073C45.9313 29.2099 45.9069 29.1138 45.8602 29.0273C45.8134 28.9407 45.7458 28.8662 45.6628 28.8099C45.5799 28.7537 45.4841 28.7173 45.3836 28.7039C45.283 28.6905 45.1805 28.7005 45.0848 28.7329C44.8927 28.8017 44.686 28.8248 44.4826 28.8002C44.2791 28.7757 44.0849 28.7042 43.9165 28.5919C43.7481 28.4796 43.6105 28.3299 43.5154 28.1554C43.4204 27.981 43.3708 27.787 43.3708 27.5902C43.3708 27.3933 43.4204 27.1994 43.5154 27.0249C43.6105 26.8505 43.7481 26.7007 43.9165 26.5884C44.0849 26.4761 44.2791 26.4046 44.4826 26.3801C44.686 26.3555 44.8927 26.3786 45.0848 26.4474C45.1805 26.4799 45.283 26.4898 45.3836 26.4764C45.4841 26.463 45.5799 26.4267 45.6628 26.3704C45.7458 26.3141 45.8134 26.2396 45.8602 26.1531C45.9069 26.0665 45.9313 25.9705 45.9314 25.873V22.7319C48.2325 22.8824 50.3989 23.8281 52.0297 25.3939C53.6606 26.9597 54.6456 29.0397 54.8023 31.2489H52.2828Z" fill="white"/>
</svg>
