<svg width="24" height="24" viewBox="0 0 24 24" fill="none" xmlns="http://www.w3.org/2000/svg">
<g clip-path="url(#clip0_123_331)">
<path d="M9.87381 11.2796C10.3719 11.0291 10.7484 10.75 11.0064 10.4485C11.4654 9.90547 11.692 9.18541 11.692 8.29283C11.692 7.42426 11.4654 6.6817 11.0124 6.05915C10.2563 5.04507 8.97674 4.52603 7.16759 4.49902H0V19.1297H6.68305C7.43611 19.1297 8.13367 19.0652 8.77872 18.9332C9.42377 18.7997 9.98182 18.5552 10.4544 18.1981C10.8744 17.8876 11.2254 17.5021 11.5044 17.0476C11.9455 16.3605 12.166 15.5819 12.166 14.7149C12.166 13.8748 11.9725 13.1592 11.5885 12.5712C11.1999 11.9831 10.6299 11.5526 9.87381 11.2796ZM2.95674 7.04023H6.18501C6.89457 7.04023 7.47961 7.11674 7.93865 7.26825C8.46969 7.48877 8.73522 7.93731 8.73522 8.62136C8.73522 9.23491 8.5327 9.66395 8.13217 9.90547C7.72863 10.147 7.20509 10.2685 6.56304 10.2685H2.95674V7.04023ZM8.06166 16.3335C7.70463 16.506 7.20209 16.5915 6.55854 16.5915H2.95674V12.6897H6.60804C7.24409 12.6942 7.73913 12.7782 8.09316 12.9357C8.72322 13.2207 9.03674 13.7428 9.03674 14.5063C9.03674 15.4064 8.71271 16.0125 8.06166 16.3335Z" fill="white"/>
<path d="M21.6933 5.18164H15.3373V7.00279H21.6933V5.18164Z" fill="white"/>
<path d="M23.9015 12.3688C23.7695 11.5212 23.4785 10.7756 23.0254 10.1321C22.5289 9.40304 21.8988 8.86899 21.1323 8.53147C20.3687 8.19244 19.5091 8.02292 18.5521 8.02442C16.9454 8.02442 15.6403 8.52697 14.6307 9.52455C13.6242 10.5251 13.1201 11.9637 13.1201 13.8389C13.1201 15.8386 13.6767 17.2832 14.7958 18.1698C15.9103 19.0578 17.1975 19.5004 18.6586 19.5004C20.4272 19.5004 21.8028 18.9738 22.7854 17.9237C23.414 17.2607 23.7695 16.6081 23.8475 15.9676H20.9193C20.7497 16.2841 20.5532 16.5316 20.3282 16.7116C19.9202 17.0417 19.3891 17.2067 18.7381 17.2067C18.1185 17.2067 17.5935 17.0702 17.1554 16.7986C16.4324 16.3636 16.0544 15.6015 16.0064 14.517H23.9975C24.0095 13.5824 23.9795 12.8638 23.9015 12.3688ZM16.0784 12.6493C16.1834 11.9457 16.4384 11.3877 16.8434 10.9752C17.2485 10.5641 17.8215 10.3571 18.5551 10.3556C19.2316 10.3556 19.7972 10.5491 20.2577 10.9377C20.7122 11.3292 20.9688 11.8977 21.0213 12.6493H16.0784Z" fill="white"/>
</g>
<defs>
<clipPath id="clip0_123_331">
<rect width="24" height="24" fill="white"/>
</clipPath>
</defs>
</svg>
