<svg width="24" height="24" viewBox="0 0 24 24" fill="none" xmlns="http://www.w3.org/2000/svg">
<g clip-path="url(#clip0_123_333)">
<path d="M18.0002 0H6.00046C2.70084 0 0.000610352 2.70023 0.000610352 5.99985V18.0001C0.000610352 21.2989 2.70084 24 6.00046 24H18.0002C21.2998 24 24 21.2989 24 18.0001V5.99985C24 2.70023 21.2998 0 18.0002 0ZM22 18.0001C22 20.2051 20.2063 22 18.0002 22H6.00046C3.79522 22 2.00066 20.2051 2.00066 18.0001V5.99985C2.00066 3.79432 3.79522 2.00005 6.00046 2.00005H18.0002C20.2063 2.00005 22 3.79432 22 5.99985V18.0001Z" fill="white"/>
<path d="M18.5008 6.99993C19.3292 6.99993 20.0008 6.32837 20.0008 5.49996C20.0008 4.67156 19.3292 4 18.5008 4C17.6724 4 17.0009 4.67156 17.0009 5.49996C17.0009 6.32837 17.6724 6.99993 18.5008 6.99993Z" fill="white"/>
<path d="M12 6C8.68564 6 6.00012 8.68581 6.00012 11.9999C6.00012 15.3127 8.68564 18.0003 12 18.0003C15.3134 18.0003 17.9998 15.3127 17.9998 11.9999C17.9998 8.68581 15.3134 6 12 6ZM12 16.0002C9.7911 16.0002 8.00017 14.2093 8.00017 11.9999C8.00017 9.7904 9.7911 8.00005 12 8.00005C14.2088 8.00005 15.9998 9.7904 15.9998 11.9999C15.9998 14.2093 14.2088 16.0002 12 16.0002Z" fill="white"/>
</g>
<defs>
<clipPath id="clip0_123_333">
<rect width="24" height="24" fill="white"/>
</clipPath>
</defs>
</svg>
